<svg width="223" height="50" viewBox="0 0 223 50" fill="none" xmlns="http://www.w3.org/2000/svg">
<path d="M27.52 31L27.488 8.6H24.064L15.328 23.448L6.432 8.6H3.008V31H6.976V16.344L14.336 28.44H16.192L23.552 16.152L23.584 31H27.52ZM49.1865 31H54.0505L44.0665 18.616L53.4745 8.6H48.8025L37.7305 20.088V8.6H33.5705V31H37.7305V25.272L41.2825 21.624L49.1865 31ZM63.3583 31.32C69.5023 31.32 72.4143 28.248 72.4143 24.664C72.4143 16.44 59.1343 19.544 59.1343 14.776C59.1343 13.08 60.5423 11.736 63.9983 11.736C65.9503 11.736 68.1583 12.312 70.1743 13.496L71.4862 10.264C69.5343 8.984 66.7183 8.28 64.0303 8.28C57.8863 8.28 55.0063 11.352 55.0063 14.968C55.0063 23.288 68.3183 20.12 68.3183 24.952C68.3183 26.616 66.8463 27.864 63.3583 27.864C60.6063 27.864 57.7583 26.84 55.9663 25.4L54.5263 28.632C56.3823 30.232 59.8703 31.32 63.3583 31.32Z" fill="white"/>
<path d="M84.896 28.08C87.664 28.08 88.928 26.704 88.928 25.12C88.928 21.056 81.936 23.04 81.936 19.68C81.936 18.448 82.912 17.44 85.088 17.44C86.096 17.44 87.232 17.744 88.16 18.384L88.464 17.728C87.6 17.104 86.32 16.72 85.088 16.72C82.336 16.72 81.12 18.112 81.12 19.696C81.12 23.824 88.112 21.808 88.112 25.168C88.112 26.384 87.12 27.36 84.88 27.36C83.376 27.36 81.952 26.752 81.184 25.952L80.816 26.56C81.632 27.456 83.232 28.08 84.896 28.08ZM91.846 17.616C92.214 17.616 92.502 17.328 92.502 16.96C92.502 16.608 92.214 16.32 91.846 16.32C91.478 16.32 91.19 16.624 91.19 16.976C91.19 17.328 91.478 17.616 91.846 17.616ZM91.446 28H92.246V19.648H91.446V28ZM97.7299 28.064C99.8579 28.064 101.026 27.136 101.026 25.776C101.026 22.592 95.4899 24.368 95.4899 21.856C95.4899 20.96 96.2099 20.288 97.8419 20.288C98.7379 20.288 99.6499 20.528 100.354 21.04L100.722 20.4C100.066 19.904 98.9139 19.584 97.8579 19.584C95.7459 19.584 94.6899 20.608 94.6899 21.872C94.6899 25.152 100.226 23.36 100.226 25.792C100.226 26.736 99.5219 27.36 97.7619 27.36C96.5299 27.36 95.3939 26.896 94.7539 26.352L94.3859 26.992C95.0419 27.6 96.3539 28.064 97.7299 28.064ZM107.067 26.912C106.731 27.216 106.266 27.376 105.771 27.376C104.747 27.376 104.219 26.784 104.219 25.712V20.336H106.875V19.648H104.219V17.824H103.419V19.648H101.883V20.336H103.419V25.792C103.419 27.2 104.219 28.064 105.691 28.064C106.315 28.064 106.987 27.872 107.403 27.472L107.067 26.912ZM116.409 23.792C116.409 21.312 114.713 19.584 112.425 19.584C110.137 19.584 108.425 21.344 108.425 23.824C108.425 26.304 110.201 28.064 112.729 28.064C113.993 28.064 115.145 27.6 115.881 26.704L115.417 26.176C114.777 26.96 113.801 27.344 112.745 27.344C110.745 27.344 109.289 26 109.209 24.016H116.393C116.393 23.936 116.409 23.856 116.409 23.792ZM112.425 20.288C114.201 20.288 115.513 21.584 115.625 23.392H109.225C109.353 21.568 110.649 20.288 112.425 20.288ZM129.284 19.584C127.668 19.584 126.452 20.384 125.908 21.6C125.46 20.272 124.356 19.584 122.852 19.584C121.332 19.584 120.196 20.272 119.652 21.44V19.648H118.884V28H119.684V23.552C119.684 21.568 120.852 20.304 122.74 20.304C124.372 20.304 125.348 21.296 125.348 23.184V28H126.148V23.552C126.148 21.568 127.316 20.304 129.204 20.304C130.836 20.304 131.812 21.296 131.812 23.184V28H132.612V23.12C132.612 20.784 131.3 19.584 129.284 19.584ZM138.731 19.584C137.435 19.584 136.219 20.032 135.387 20.768L135.787 21.344C136.475 20.72 137.515 20.288 138.667 20.288C140.299 20.288 141.147 21.12 141.147 22.672V23.344H138.283C135.963 23.344 135.163 24.416 135.163 25.68C135.163 27.104 136.299 28.064 138.171 28.064C139.627 28.064 140.651 27.472 141.179 26.512V28H141.947V22.704C141.947 20.64 140.795 19.584 138.731 19.584ZM138.283 27.408C136.811 27.408 135.963 26.736 135.963 25.648C135.963 24.688 136.571 23.968 138.299 23.968H141.147V25.536C140.667 26.736 139.691 27.408 138.283 27.408ZM147.355 28.064C149.483 28.064 150.651 27.136 150.651 25.776C150.651 22.592 145.115 24.368 145.115 21.856C145.115 20.96 145.835 20.288 147.467 20.288C148.363 20.288 149.275 20.528 149.979 21.04L150.347 20.4C149.691 19.904 148.539 19.584 147.483 19.584C145.371 19.584 144.315 20.608 144.315 21.872C144.315 25.152 149.851 23.36 149.851 25.792C149.851 26.736 149.147 27.36 147.387 27.36C146.155 27.36 145.019 26.896 144.379 26.352L144.011 26.992C144.667 27.6 145.979 28.064 147.355 28.064Z" fill="white"/>
</svg>
